HIERARCHY
ROOT Hips
{
  OFFSET -35.4901 99.2528 17.4586
  CHANNELS 6 Xposition Yposition Zposition Zrotation Xrotation Yrotation
  JOINT LeftUpLeg
  {
    OFFSET 8.64259 1.95398 -2.38835
    CHANNELS 3 Zrotation Xrotation Yrotation
    JOINT LeftLeg
    {
      OFFSET 43.7702 0 0
      CHANNELS 3 Zrotation Xrotation Yrotation
      JOINT LeftFoot
      {
        OFFSET 40.6238 0 0
        CHANNELS 3 Zrotation Xrotation Yrotation
        JOINT LeftToeBase
        {
          OFFSET 12.7242 0 0
          CHANNELS 3 Zrotation Xrotation Yrotation
          End Site
          {
            OFFSET 0 0 0
          }
        }
      }
    }
  }
  JOINT RightUpLeg
  {
    OFFSET -8.2249 1.95398 -2.59336
    CHANNELS 3 Zrotation Xrotation Yrotation
    JOINT RightLeg
    {
      OFFSET 43.5653 0 0
      CHANNELS 3 Zrotation Xrotation Yrotation
      JOINT RightFoot
      {
        OFFSET 40.6238 0 0
        CHANNELS 3 Zrotation Xrotation Yrotation
        JOINT RightToeBase
        {
          OFFSET 12.7242 0 0
          CHANNELS 3 Zrotation Xrotation Yrotation
          End Site
          {
            OFFSET 0 0 0
          }
        }
      }
    }
  }
  JOINT Spine
  {
    OFFSET 0.165834 0.87714 6.61349
    CHANNELS 3 Zrotation Xrotation Yrotation
    JOINT Spine1
    {
      OFFSET 7.38963 1.71661e-005 0
      CHANNELS 3 Zrotation Xrotation Yrotation
      JOINT Spine2
      {
        OFFSET 11.9445 1.14441e-005 0
        CHANNELS 3 Zrotation Xrotation Yrotation
        JOINT Spine3
        {
          OFFSET 14.7254 4.19617e-005 0
          CHANNELS 3 Zrotation Xrotation Yrotation
          JOINT Spine4
          {
            OFFSET 10.9679 0 0
            CHANNELS 3 Zrotation Xrotation Yrotation
            JOINT RightShoulder
            {
              OFFSET 2.46616 -1.6653 3.69651
              CHANNELS 3 Zrotation Xrotation Yrotation
              JOINT RightArm
              {
                OFFSET 13.0012 0 0
                CHANNELS 3 Zrotation Xrotation Yrotation
                JOINT RightForeArm
                {
                  OFFSET 28.7848 1.52588e-005 0
                  CHANNELS 3 Zrotation Xrotation Yrotation
                  JOINT RightHand
                  {
                    OFFSET 26.5688 1.52588e-005 0
                    CHANNELS 3 Zrotation Xrotation Yrotation
                    End Site
                    {
                      OFFSET 0 0 0
                    }
                  }
                }
              }
            }
            JOINT LeftShoulder
            {
              OFFSET 2.38034 -1.29275 -3.7523
              CHANNELS 3 Zrotation Xrotation Yrotation
              JOINT LeftArm
              {
                OFFSET 16.3182 6.10351e-005 0
                CHANNELS 3 Zrotation Xrotation Yrotation
                JOINT LeftForeArm
                {
                  OFFSET 27.0901 0 0
                  CHANNELS 3 Zrotation Xrotation Yrotation
                  JOINT LeftHand
                  {
                    OFFSET 24.5451 1.52588e-005 0
                    CHANNELS 3 Zrotation Xrotation Yrotation
                    End Site
                    {
                      OFFSET 0 0 0
                    }
                  }
                }
              }
            }
            JOINT Neck
            {
              OFFSET 5.0226 -0.0266342 0
              CHANNELS 3 Zrotation Xrotation Yrotation
              JOINT Head
              {
                OFFSET 6.69364 2.86102e-005 0
                CHANNELS 3 Zrotation Xrotation Yrotation
                End Site
                {
                  OFFSET 0 0 0
                }
              }
            }
          }
        }
      }
    }
  }
}
MOTION
Frames:	16
Frame Time:	0.0416667
35.1113 99.7445 18.5974 -150.413 -82.9637 -151.582 -176.567 -3.91993 91.1447 -11.7643 -2.63934 -0.468475 71.2874 5.0747 -3.04162 18.4454 -3.12932 5.19339 168.649 -2.99795 84.6311 -10.3253 -11.6573 -1.34596 67.7174 -3.88511 1.73104 25.9823 -1.04882 3.01788 0.301983 7.43405 -89.9772 12.006 0.611222 -0.0209761 0.335203 0.609698 -0.0478605 -22.201 0.589256 0.163706 -2.18839 0.589267 0.163701 91.8896 -28.6942 -103.432 44.094 -13.9799 -5.16486 4.87296 -22.3481 -15.5299 -22.8694 0.184849 -8.88303 -82.9413 -49.5928 89.3119 -27.2716 18.2936 -16.4662 -0.30592 5.13537 -4.83336 -1.3464 -0.111245 -6.68346 6.01805 -1.79903 -1.77106 -6.89038 -1.53643 2.47653 
35.1226 99.7663 18.5169 -150.917 -83.1854 -152.105 -176.785 -3.84717 91.0201 -11.4517 -2.8486 -0.266869 71.1033 4.93798 -3.60554 17.9145 -3.44221 5.62071 168.772 -2.88421 84.7272 -10.2171 -11.6132 -1.42176 67.379 -3.75508 1.47411 25.3681 -0.84746 2.55858 0.29528 7.40063 -90.0153 12.073 0.579762 -0.0942603 0.402147 0.575056 -0.119695 -22.134 0.581286 0.084344 -2.12139 0.581286 0.0843452 92.0893 -28.3341 -103.146 44.1959 -14.4428 -5.09574 4.56559 -24.1461 -15.0882 -23.8376 0.196448 -9.08342 -83.1579 -50.6409 89.0854 -25.8285 19.2427 -16.4498 -1.24155 3.20443 -4.62208 0.760788 -0.197753 -8.39849 5.25205 -1.89254 -0.939649 -5.8906 -1.74579 1.68256 
35.1598 99.7451 18.4722 -150.5 -83.2831 -151.716 -176.842 -3.64978 90.9001 -11.547 -2.40198 -0.287729 70.9539 4.90457 -3.19037 17.1898 -3.16403 5.22952 168.753 -2.69089 84.686 -10.3024 -11.2798 -1.39068 67.5791 -3.79025 1.81987 25.1816 -0.863748 2.61308 0.310387 7.41137 -90.0346 12.0516 0.600756 -0.13491 0.380829 0.594238 -0.161223 -22.1555 0.613529 0.0518874 -2.1428 0.613527 0.0518893 92.2182 -28.2196 -102.92 43.8762 -14.3406 -5.80991 5.80223 -26.8639 -13.5393 -23.1682 0.311477 -10.2957 -83.2091 -51.0565 89.0486 -25.7023 18.9121 -16.7931 -1.16044 3.37923 -4.37098 0.0212748 -0.181186 -8.70684 5.33077 -1.89074 -0.537776 -5.6496 -1.81064 1.56274 
35.1911 99.7526 18.4322 -149.351 -83.2662 -150.636 -176.839 -3.66801 90.8457 -11.401 -2.68049 -0.380775 70.9554 4.91139 -3.42819 16.5235 -3.27496 5.37094 168.718 -2.56336 84.6085 -10.3461 -11.5379 -1.40365 67.7016 -3.84717 1.62677 24.8334 -0.865769 2.643 0.318093 7.41241 -89.9944 12.0495 0.635117 -0.0582636 0.378707 0.631927 -0.0861654 -22.1577 0.623255 0.135321 -2.14502 0.623258 0.135313 92.09 -28.5859 -103.06 43.785 -14.3729 -6.00595 6.15735 -26.043 -13.0307 -24.0385 0.357716 -10.2178 -83.1225 -50.2656 89.1021 -26.6644 18.2552 -16.7159 -0.731395 4.10773 -4.03954 0.234132 -0.184368 -8.48998 5.2963 -1.89167 -0.836209 -5.72358 -1.75693 1.54578 
35.1972 99.7557 18.433 -149.263 -83.2908 -150.464 -176.801 -3.5301 90.9654 -11.5832 -2.76958 -0.353613 70.8679 4.8333 -3.73782 17.0179 -2.87767 4.83804 168.76 -2.60959 84.6968 -10.2019 -11.4746 -1.38974 67.4789 -3.75044 1.77812 25.1308 -0.863214 2.61535 0.314617 7.41284 -90.0042 12.0486 0.623582 -0.0765561 0.377766 0.619608 -0.103929 -22.1586 0.617763 0.114403 -2.14592 0.617757 0.114402 92.1052 -28.5378 -103.044 43.7761 -14.2004 -6.06671 5.82398 -26.6257 -12.9562 -24.4761 0.259683 -9.68518 -82.996 -50.2399 89.2909 -26.7269 17.9856 -16.7942 -0.585309 4.7993 -3.89469 0.0921896 -0.188478 -8.92125 5.22001 -1.82553 -0.889118 -6.03954 -1.69591 1.78995 
35.2193 99.7449 18.4651 -149.628 -83.2245 -150.747 -176.737 -3.57717 90.9998 -11.6517 -2.27871 -0.384667 70.9878 4.9191 -2.95334 17.0608 -3.12662 5.17653 168.761 -2.75621 84.7351 -10.1244 -11.5307 -1.37317 67.374 -3.72772 1.73143 25.3998 -0.805743 2.45307 0.309211 7.43267 -90.0546 12.0091 0.589037 -0.173042 0.33829 0.580849 -0.1988 -22.1979 0.613806 0.0120054 -2.18529 0.613807 0.0119988 92.1303 -28.3541 -103.055 43.5565 -14.3587 -6.07447 5.85143 -25.3659 -12.7654 -23.3671 0.458139 -10.84 -82.9917 -50.9534 89.3642 -25.3094 19.3454 -16.875 -1.4275 3.01332 -4.47237 0.741996 -0.207265 -8.69328 5.18556 -1.78575 -0.290448 -6.10286 -1.75595 1.44125 
35.2611 99.7568 18.4831 -150.149 -83.403 -151.307 -176.729 -3.4197 91.0121 -11.7269 -2.47121 -0.424989 70.9998 4.89556 -3.49197 16.8613 -2.9855 4.98181 168.724 -2.65534 84.6993 -10.1282 -11.4396 -1.35396 67.4552 -3.76488 1.66879 25.0815 -0.850145 2.58927 0.319336 7.41984 -90.012 12.0346 0.629267 -0.0926755 0.363784 0.624576 -0.120292 -22.1726 0.62802 0.100734 -2.15993 0.628029 0.100736 92.2192 -28.8009 -102.723 43.4277 -14.7855 -6.14731 5.87768 -23.4455 -13.0217 -24.1889 0.493556 -10.4984 -83.1205 -50.0556 89.0849 -26.8946 17.806 -16.8566 -0.438041 5.03924 -3.92685 -0.238884 -0.177775 -9.05304 5.19985 -1.93342 -0.835152 -6.32561 -1.80595 1.499 
35.301 99.7403 18.5178 -150.559 -83.3247 -151.582 -176.596 -3.28499 91.1603 -12.2174 -2.25382 -0.483813 71.1895 4.92837 -3.31125 17.2537 -3.0134 5.02376 168.671 -2.93706 84.7389 -9.72156 -11.6452 -1.27247 66.9392 -3.56464 2.10197 25.9426 -0.411553 1.41999 0.296426 7.42476 -90.0483 12.0249 0.566581 -0.158263 0.35408 0.559065 -0.183055 -22.1821 0.587949 0.0193343 -2.16943 0.587948 0.0193327 92.0172 -28.4616 -103.251 43.6658 -14.5423 -5.88366 5.50532 -23.2458 -13.0815 -24.3292 0.52577 -10.6075 -82.9181 -50.323 89.4156 -27.0822 17.4716 -16.6603 -0.250417 5.04327 -4.0619 0.00458028 -0.185287 -8.7293 5.18312 -1.74924 -0.306961 -6.34863 -1.70592 1.06436 
35.3566 99.7264 18.525 -150.516 -83.5442 -151.76 -176.779 -3.16484 90.874 -12.0745 -2.30873 -0.448771 71.0956 4.93114 -3.27456 16.9093 -2.93266 4.91224 168.522 -2.53665 84.4637 -9.94629 -11.4139 -1.24064 66.9594 -3.52128 2.51011 26.421 -0.552929 1.7319 0.271966 7.4049 -90.0164 12.0644 0.532988 -0.091131 0.393565 0.528461 -0.114503 -22.1425 0.535727 0.0732744 -2.12982 0.53573 0.0732685 91.8528 -28.6505 -103.522 43.4903 -14.2872 -5.80374 5.39544 -24.4164 -13.2051 -24.4044 0.439653 -10.3134 -82.8232 -50.3829 89.5647 -25.7263 19.2835 -16.6244 -1.23194 2.90932 -4.7902 0.424521 -0.18162 -8.19874 5.06981 -1.68166 -0.460325 -6.27537 -1.61324 1.12116 
35.3714 99.7257 18.5955 -149.54 -83.3719 -150.711 -176.677 -3.32428 90.9608 -12.082 -2.36456 -0.533224 71.1968 4.9511 -3.23858 17.0412 -2.98378 4.98225 168.588 -2.69503 84.5177 -9.91371 -11.5826 -1.3046 66.8294 -3.46499 2.70977 26.6259 -0.324538 1.13049 0.293756 7.41188 -90.0328 12.0505 0.568582 -0.127562 0.379717 0.562411 -0.152467 -22.1564 0.580622 0.0492216 -2.14379 0.580622 0.0492165 91.8877 -28.4989 -103.503 43.6885 -13.9657 -5.83076 5.44255 -25.9097 -13.1718 -23.6741 0.427022 -10.6775 -83.021 -50.1496 89.2441 -27.2592 17.3742 -16.3601 -0.16848 4.77538 -4.31571 0.346026 -0.180542 -8.15453 4.7316 -1.84651 -0.393486 -6.24991 -1.78613 1.03475 
35.394 99.7487 18.6149 -149.867 -83.4344 -151.082 -176.648 -3.46267 90.9423 -11.7322 -2.25823 -0.606002 71.0876 4.98595 -3.03123 16.7711 -2.78479 4.71018 168.486 -2.58752 84.4509 -10.1482 -12.148 -1.24142 67.217 -3.68277 1.58027 25.6575 -0.610643 1.94539 0.284729 7.41209 -90.057 12.0502 0.539216 -0.172751 0.379318 0.531086 -0.196323 -22.1567 0.566202 -0.00270065 -2.14408 0.566196 -0.00271065 91.8763 -28.1994 -103.629 43.8729 -13.8208 -5.8425 5.39374 -26.1135 -12.9574 -23.7421 0.404022 -10.5724 -82.8888 -50.8647 89.5105 -25.907 18.5716 -16.5663 -0.910543 3.51908 -4.65259 0.549668 -0.186534 -8.13827 4.64609 -1.68512 0.0456522 -6.33267 -1.69839 0.795669 
35.3716 99.7337 18.6486 -149.411 -83.4531 -150.601 -176.758 -3.42297 90.8945 -11.7778 -2.43638 -0.474493 71.1609 4.94738 -3.27288 16.8149 -3.08114 5.11281 168.562 -2.66619 84.5126 -9.92046 -11.6843 -1.28168 67.0343 -3.5687 2.29116 26.1193 -0.460026 1.52274 0.281514 7.41238 -90.0413 12.0495 0.540207 -0.141518 0.378702 0.533461 -0.165167 -22.1574 0.557768 0.027381 -2.14471 0.55777 0.0273875 91.7204 -28.4999 -103.844 43.7649 -14.0061 -5.80964 5.48536 -24.1365 -12.5675 -24.941 0.517796 -10.5514 -83.0356 -50.3908 89.2453 -26.3601 18.3444 -16.385 -0.82085 3.29749 -4.57722 0.582167 -0.193836 -8.3768 4.42538 -1.68876 -0.385371 -6.02429 -1.6287 0.951903 
35.3783 99.7459 18.6782 -148.417 -83.3878 -149.634 -176.74 -3.6479 90.8813 -11.39 -2.50425 -0.530719 71.0689 4.95176 -3.11639 16.7769 -2.92416 4.90017 168.525 -2.55912 84.4562 -10.0962 -12.3632 -1.27227 66.8381 -3.49893 1.86791 26.5635 -0.421455 1.3835 0.298219 7.41478 -90.0097 12.0447 0.588373 -0.0836239 0.373831 0.584127 -0.109451 -22.1624 0.586304 0.0970886 -2.14972 0.586299 0.0970696 91.5377 -28.9224 -104.069 43.5145 -13.6861 -5.68187 5.66147 -25.8862 -12.4046 -23.9522 0.550449 -11.2854 -83.1754 -49.8167 88.9785 -27.3497 17.3819 -16.249 -0.240198 4.34985 -4.15678 0.187118 -0.184085 -8.55614 3.8745 -1.80707 -0.948456 -5.60617 -1.65441 1.18265 
35.3705 99.7318 18.699 -147.957 -83.4217 -149.077 -176.763 -3.51081 90.9423 -11.5958 -2.59463 -0.444972 71.0818 4.87906 -3.32956 17.0466 -3.08199 5.11539 168.62 -2.75441 84.5678 -9.65473 -11.6005 -1.30498 66.8135 -3.47702 2.61569 26.6233 -0.469922 1.50049 0.302899 7.43437 -90.055 12.0056 0.576267 -0.172509 0.334813 0.568112 -0.197707 -22.2014 0.601466 0.00866599 -2.18872 0.601468 0.00866476 91.6395 -28.6293 -103.965 43.3958 -13.6427 -5.69578 5.42148 -26.2815 -12.9088 -24.0224 0.465922 -10.8673 -83.0854 -50.4711 89.178 -26.2082 18.4164 -16.4866 -0.882254 3.15173 -4.46391 0.584415 -0.193222 -8.35607 3.86562 -1.69067 -0.583883 -5.78703 -1.60925 1.30927 
35.367 99.7462 18.7488 -147.561 -83.189 -148.312 -176.576 -3.61011 91.3129 -11.8081 -2.64994 -0.409019 71.2239 4.84989 -3.41061 17.1551 -2.90812 4.87986 168.802 -3.2503 84.9404 -9.25495 -11.6954 -1.3159 66.8441 -3.5774 2.1564 26.0305 -0.634621 1.95426 0.343886 7.47502 -90.0624 11.9246 0.654433 -0.194864 0.253755 0.645224 -0.223485 -22.2827 0.68274 0.0108352 -2.27008 0.682745 0.0108414 91.6656 -28.971 -103.793 43.3515 -13.9233 -5.74562 5.32646 -24.0779 -13.1471 -24.2158 0.519716 -10.7533 -83.1089 -49.7993 89.0776 -27.2239 17.514 -16.4809 -0.298777 4.21593 -4.1637 0.0904045 -0.17946 -8.50709 3.98131 -1.77658 -1.0544 -6.27273 -1.63254 1.71723 
35.3928 99.7407 18.7957 -146.972 -83.279 -147.871 -176.739 -3.71552 91.081 -11.4801 -2.81883 -0.344197 71.2775 4.90111 -3.32435 16.8843 -3.0124 5.02018 168.698 -3.08951 84.7674 -9.29777 -11.9275 -1.30553 66.7526 -3.50342 2.30398 26.1556 -0.437874 1.45868 0.322339 7.48283 -90.085 11.909 0.600975 -0.234222 0.238178 0.590076 -0.260445 -22.2981 0.643585 -0.0427662 -2.28543 0.643574 -0.0427726 91.8475 -28.2651 -103.666 43.6141 -14.124 -5.90366 5.63382 -24.8495 -12.8433 -24.0456 0.484318 -10.7226 -82.9219 -50.7312 89.4482 -26.4132 17.6739 -16.4423 -0.462115 3.98314 -4.41967 0.294729 -0.186537 -8.49217 3.73792 -1.61846 -0.109863 -6.22291 -1.60621 0.797215 
